<svg width="16" height="17" viewBox="0 0 16 17" fill="none" xmlns="http://www.w3.org/2000/svg">
<path fill-rule="evenodd" clip-rule="evenodd" d="M7.69762 0.837646C9.65256 0.837646 11.2675 2.32723 11.4666 4.23236L11.5222 4.23302C12.6067 4.23302 13.9253 4.95326 14.3703 6.97337L14.9604 11.5409C15.172 13.015 14.9073 14.1975 14.1721 15.0456C13.4406 15.8892 12.2828 16.3357 10.8237 16.3357H4.5801C2.97732 16.3357 1.86069 15.9431 1.16588 15.1361C0.468075 14.3268 0.234726 13.113 0.472562 11.5289L1.05294 7.02198C1.43438 4.9555 2.82923 4.23302 3.90922 4.23302C4.00245 3.37328 4.39012 2.55538 5.00513 1.94231C5.71191 1.24002 6.68644 0.837646 7.68191 0.837646H7.69762ZM11.5222 5.35489H3.90922C3.57939 5.35489 2.47697 5.48801 2.1606 7.19625L1.58321 11.6837C1.39549 12.9425 1.54058 13.8534 2.01551 14.4046C2.48445 14.9491 3.3236 15.2139 4.5801 15.2139H10.8237C11.6075 15.2139 12.6777 15.0576 13.3239 14.3111C13.837 13.7195 14.0135 12.8385 13.849 11.6919L13.2663 7.16558C13.018 6.05044 12.3629 5.35489 11.5222 5.35489ZM9.8789 7.43715C10.1885 7.43715 10.457 7.68845 10.457 7.99808C10.457 8.30772 10.2229 8.55902 9.91331 8.55902H9.8789C9.56927 8.55902 9.31797 8.30772 9.31797 7.99808C9.31797 7.68845 9.56927 7.43715 9.8789 7.43715ZM5.5185 7.43715C5.82814 7.43715 6.09664 7.68845 6.09664 7.99808C6.09664 8.30772 5.86179 8.55902 5.55216 8.55902H5.5185C5.20887 8.55902 4.95757 8.30772 4.95757 7.99808C4.95757 7.68845 5.20887 7.43715 5.5185 7.43715ZM7.69537 1.95951H7.68416C6.98037 1.95951 6.29454 2.24297 5.79717 2.73734C5.39203 3.14067 5.12706 3.67088 5.04134 4.23267L10.336 4.23288C10.1438 2.94779 9.03257 1.95951 7.69537 1.95951Z" fill="#323232"/>
</svg>
