<svg width="19" height="19" viewBox="0 0 19 19" fill="none" xmlns="http://www.w3.org/2000/svg">
<g clip-path="url(#clip0_0_601)">
<path fill-rule="evenodd" clip-rule="evenodd" d="M9.75449 0.918457C11.3771 0.936973 12.8429 1.33575 14.152 2.1148C15.4455 2.87829 16.5215 3.96086 17.2771 5.25898C18.0514 6.57597 18.4478 8.05069 18.4662 9.68314C18.4202 11.9167 17.7157 13.8244 16.3527 15.4063C14.9897 16.9881 13.244 17.9667 11.4369 18.3418V12.0795H13.1454L13.5318 9.61861H10.9447V8.00676C10.9304 7.67262 11.0361 7.34436 11.2427 7.08134C11.4496 6.8176 11.8139 6.67899 12.3356 6.66549H13.8979V4.50976C13.8755 4.50255 13.6628 4.47403 13.2598 4.42421C12.8028 4.37073 12.3432 4.34217 11.8831 4.33865C10.8417 4.34346 10.0181 4.63721 9.41225 5.21993C8.80641 5.80247 8.49694 6.6453 8.48382 7.74839V9.61861H6.51507V12.0795H8.48382V18.3418C6.26494 17.9667 4.51925 16.9881 3.15625 15.4063C1.79324 13.8244 1.08878 11.9167 1.04279 9.68314C1.06119 8.05062 1.45756 6.57589 2.2319 5.25898C2.9875 3.96086 4.0635 2.87829 5.35699 2.1148C6.66606 1.3359 8.13189 0.937123 9.75449 0.918457Z" fill="#494949"/>
</g>
<defs>
<clipPath id="clip0_0_601">
<rect width="18" height="18" fill="white" transform="translate(0.783203 0.645752)"/>
</clipPath>
</defs>
</svg>
