<svg width="17" height="17" viewBox="0 0 17 17" fill="none" xmlns="http://www.w3.org/2000/svg">
<mask id="path-1-inside-1_0_268" fill="white">
<path fill-rule="evenodd" clip-rule="evenodd" d="M8.81217 1.62275C10.1044 0.805772 11.821 0.580069 13.304 1.05532C16.5298 2.09562 17.5311 5.61229 16.6355 8.41052C15.2534 12.8054 9.35099 16.0836 9.10065 16.2211C9.01164 16.2704 8.9131 16.295 8.81455 16.295C8.71601 16.295 8.61825 16.2712 8.52924 16.2227C8.28049 16.0868 2.42097 12.857 0.992839 8.41132C0.992045 8.41132 0.992045 8.41052 0.992045 8.41052C0.0955916 5.61149 1.09377 2.09403 4.31639 1.05532C5.82955 0.565764 7.47861 0.781135 8.81217 1.62275ZM4.68197 2.19019C2.07446 3.03101 1.41961 5.83561 2.12771 8.04733C3.24192 11.5139 7.64392 14.3169 8.81376 15.0107C9.98757 14.3098 14.4214 11.4758 15.4998 8.05051C16.2079 5.8364 15.5507 3.03181 12.9392 2.19019C11.674 1.78408 10.1982 2.03124 9.17933 2.81961C8.96634 2.98333 8.67071 2.98651 8.45613 2.82438C7.37689 2.01296 5.96704 1.77534 4.68197 2.19019ZM12.1762 3.76844C13.2595 4.11891 14.0184 5.07815 14.1114 6.21223C14.1376 6.54045 13.8937 6.82814 13.5654 6.85437C13.5487 6.85596 13.5329 6.85675 13.5162 6.85675C13.2086 6.85675 12.9479 6.62072 12.9225 6.30918C12.87 5.65592 12.4329 5.10438 11.8107 4.90331C11.4968 4.80159 11.3251 4.46542 11.426 4.15309C11.5285 3.83996 11.8615 3.66989 12.1762 3.76844Z"/>
</mask>
<path fill-rule="evenodd" clip-rule="evenodd" d="M8.81217 1.62275C10.1044 0.805772 11.821 0.580069 13.304 1.05532C16.5298 2.09562 17.5311 5.61229 16.6355 8.41052C15.2534 12.8054 9.35099 16.0836 9.10065 16.2211C9.01164 16.2704 8.9131 16.295 8.81455 16.295C8.71601 16.295 8.61825 16.2712 8.52924 16.2227C8.28049 16.0868 2.42097 12.857 0.992839 8.41132C0.992045 8.41132 0.992045 8.41052 0.992045 8.41052C0.0955916 5.61149 1.09377 2.09403 4.31639 1.05532C5.82955 0.565764 7.47861 0.781135 8.81217 1.62275ZM4.68197 2.19019C2.07446 3.03101 1.41961 5.83561 2.12771 8.04733C3.24192 11.5139 7.64392 14.3169 8.81376 15.0107C9.98757 14.3098 14.4214 11.4758 15.4998 8.05051C16.2079 5.8364 15.5507 3.03181 12.9392 2.19019C11.674 1.78408 10.1982 2.03124 9.17933 2.81961C8.96634 2.98333 8.67071 2.98651 8.45613 2.82438C7.37689 2.01296 5.96704 1.77534 4.68197 2.19019ZM12.1762 3.76844C13.2595 4.11891 14.0184 5.07815 14.1114 6.21223C14.1376 6.54045 13.8937 6.82814 13.5654 6.85437C13.5487 6.85596 13.5329 6.85675 13.5162 6.85675C13.2086 6.85675 12.9479 6.62072 12.9225 6.30918C12.87 5.65592 12.4329 5.10438 11.8107 4.90331C11.4968 4.80159 11.3251 4.46542 11.426 4.15309C11.5285 3.83996 11.8615 3.66989 12.1762 3.76844Z" fill="black"/>
<path d="M8.81217 1.62275L7.74475 3.31409L8.81311 3.98834L9.88094 3.31324L8.81217 1.62275ZM13.304 1.05532L13.9178 -0.848153L13.9143 -0.849271L13.304 1.05532ZM16.6355 8.41052L14.7306 7.80083L14.7276 7.81056L16.6355 8.41052ZM9.10065 16.2211L8.13788 14.4681L8.13202 14.4713L9.10065 16.2211ZM8.52924 16.2227L7.57036 17.9778L7.57264 17.9791L8.52924 16.2227ZM0.992839 8.41132L2.897 7.79963L2.45103 6.41132H0.992839V8.41132ZM0.992045 8.41052L2.99204 8.41049L2.99204 8.09805L2.89674 7.8005L0.992045 8.41052ZM4.31639 1.05532L4.92994 2.95888L4.93203 2.95821L4.31639 1.05532ZM4.68197 2.19019L5.29577 4.09367L5.29638 4.09347L4.68197 2.19019ZM2.12771 8.04733L0.222949 8.65716L0.223644 8.65932L2.12771 8.04733ZM8.81376 15.0107L7.79354 16.731L8.81727 17.3381L9.83916 16.7279L8.81376 15.0107ZM15.4998 8.05051L13.5948 7.44128L13.5921 7.44988L15.4998 8.05051ZM12.9392 2.19019L13.5527 0.2866L13.5504 0.285882L12.9392 2.19019ZM9.17933 2.81961L10.3982 4.40531L10.4033 4.40137L9.17933 2.81961ZM8.45613 2.82438L9.6618 1.22864L9.65801 1.22579L8.45613 2.82438ZM12.1762 3.76844L12.7919 1.86556L12.7829 1.86265L12.7739 1.85982L12.1762 3.76844ZM14.1114 6.21223L16.1051 6.05293L16.1047 6.0488L14.1114 6.21223ZM13.5654 6.85437L13.4061 4.86072L13.391 4.86193L13.3758 4.86338L13.5654 6.85437ZM12.9225 6.30918L10.9289 6.46925L10.9291 6.47191L12.9225 6.30918ZM11.8107 4.90331L11.1941 6.80591L11.1957 6.80643L11.8107 4.90331ZM11.426 4.15309L9.5253 3.53077L9.52293 3.53809L11.426 4.15309ZM9.88094 3.31324C10.6733 2.81226 11.7751 2.66556 12.6936 2.9599L13.9143 -0.849271C11.8669 -1.50542 9.53546 -1.20072 7.7434 -0.0677311L9.88094 3.31324ZM12.6901 2.95878C14.5415 3.55584 15.4046 5.69531 14.7307 7.80084L18.5403 9.02021C19.6577 5.52926 18.5181 0.635395 13.9178 -0.848149L12.6901 2.95878ZM14.7276 7.81056C14.2152 9.43998 12.7693 11.0506 11.1707 12.3698C9.62643 13.6441 8.20855 14.4293 8.13788 14.4681L10.0634 17.9741C10.2431 17.8755 11.9016 16.9527 13.7167 15.4549C15.4774 14.0019 17.6737 11.7759 18.5434 9.01049L14.7276 7.81056ZM8.13202 14.4713C8.34426 14.3538 8.57974 14.295 8.81455 14.295V18.295C9.24645 18.295 9.67903 18.1869 10.0693 17.9709L8.13202 14.4713ZM8.81455 14.295C9.04078 14.295 9.27317 14.3505 9.48585 14.4663L7.57264 17.9791C7.96333 18.1919 8.39123 18.295 8.81455 18.295V14.295ZM9.48813 14.4676C9.41771 14.4291 8.01263 13.6569 6.47535 12.3898C4.8877 11.0813 3.43216 9.46556 2.897 7.79963L-0.911324 9.02301C-0.0183563 11.8028 2.16994 14.0248 3.93126 15.4765C5.74297 16.9698 7.39203 17.8804 7.57036 17.9778L9.48813 14.4676ZM0.992839 6.41132C1.34278 6.41132 1.73818 6.5046 2.10208 6.7473C2.45343 6.98162 2.66263 7.27967 2.78113 7.51676C2.89573 7.74604 2.94306 7.95109 2.96486 8.08195C2.97655 8.15211 2.98317 8.21496 2.98697 8.26809C2.98889 8.29499 2.99015 8.32033 2.99093 8.3439C2.99133 8.35571 2.99161 8.36717 2.99178 8.37825C2.99187 8.3838 2.99194 8.38925 2.99198 8.39463C2.992 8.39731 2.99202 8.39998 2.99203 8.40262C2.99203 8.40394 2.99204 8.40526 2.99204 8.40657C2.99204 8.40723 2.99204 8.40821 2.99204 8.40853C2.99204 8.40951 2.99204 8.41049 0.992045 8.41052C-1.00796 8.41056 -1.00796 8.41154 -1.00795 8.41251C-1.00795 8.41284 -1.00795 8.41382 -1.00795 8.41448C-1.00795 8.41579 -1.00794 8.41711 -1.00794 8.41843C-1.00793 8.42107 -1.00791 8.42374 -1.00789 8.42642C-1.00785 8.4318 -1.00778 8.43726 -1.00769 8.4428C-1.00752 8.45389 -1.00724 8.46535 -1.00684 8.47717C-1.00606 8.50075 -1.0048 8.5261 -1.00287 8.55303C-0.999076 8.6062 -0.99245 8.66911 -0.980747 8.73935C-0.95892 8.87035 -0.91154 9.07561 -0.796843 9.30508C-0.678241 9.54238 -0.468892 9.84062 -0.117322 10.0751C0.246807 10.3179 0.642505 10.4113 0.992839 10.4113V6.41132ZM2.89674 7.8005C2.22115 5.69106 3.08484 3.55359 4.92994 2.95888L3.70284 -0.848247C-0.897295 0.63446 -2.02996 5.53192 -0.912653 9.02055L2.89674 7.8005ZM4.93203 2.95821C5.8759 2.65284 6.90888 2.78656 7.74475 3.31409L9.87958 -0.0685845C8.04835 -1.22429 5.78321 -1.52131 3.70075 -0.847572L4.93203 2.95821ZM4.06816 0.286705C2.12583 0.913036 0.879313 2.3086 0.286064 3.90984C-0.287747 5.45862 -0.251467 7.17534 0.22295 8.65716L4.03247 7.43751C3.79879 6.7076 3.80844 5.91616 4.03691 5.2995C4.24594 4.73531 4.6306 4.30816 5.29577 4.09367L4.06816 0.286705ZM0.223644 8.65932C0.947508 10.9115 2.65503 12.7723 4.12793 14.0697C5.64323 15.4043 7.15219 16.3506 7.79354 16.731L9.83397 13.2905C9.30548 12.9771 8.02852 12.1749 6.77181 11.068C5.4727 9.92375 4.42212 8.64981 4.03178 7.43534L0.223644 8.65932ZM9.83916 16.7279C10.4801 16.3451 11.9965 15.3901 13.5145 14.0531C14.9862 12.7568 16.7014 10.8938 17.4075 8.65114L13.5921 7.44988C13.2198 8.63249 12.1788 9.89915 10.8706 11.0514C9.6086 12.163 8.32121 12.9754 7.78836 13.2936L9.83916 16.7279ZM17.4048 8.65974C17.8791 7.17656 17.9146 5.45888 17.3392 3.90939C16.7443 2.30745 15.4958 0.912837 13.5527 0.286602L12.3257 4.09377C12.994 4.30916 13.3799 4.73765 13.5894 5.30193C13.8185 5.91868 13.8286 6.71036 13.5949 7.44128L17.4048 8.65974ZM13.5504 0.285882C11.6811 -0.31413 9.51459 0.0313561 7.95538 1.23786L10.4033 4.40137C10.8818 4.03113 11.6668 3.88229 12.3279 4.09449L13.5504 0.285882ZM7.96048 1.23393C8.45155 0.856465 9.1483 0.84067 9.6618 1.22865L7.25046 4.42012C8.19311 5.13234 9.48114 5.11019 10.3982 4.4053L7.96048 1.23393ZM9.65801 1.22579C8.05987 0.0242489 5.97274 -0.328131 4.06755 0.286904L5.29638 4.09347C5.96134 3.87881 6.6939 4.00168 7.25425 4.42297L9.65801 1.22579ZM11.5606 5.67132C11.875 5.77304 12.0911 6.04572 12.1181 6.37566L16.1047 6.0488C15.9458 4.11058 14.644 2.46479 12.7919 1.86556L11.5606 5.67132ZM12.1178 6.37153C12.0564 5.60402 12.628 4.9229 13.4061 4.86072L13.7247 8.84801C15.1593 8.73338 16.2188 7.47688 16.1051 6.05293L12.1178 6.37153ZM13.3758 4.86338C13.4188 4.85929 13.4662 4.85675 13.5162 4.85675V8.85675C13.5995 8.85675 13.6787 8.85263 13.7551 8.84536L13.3758 4.86338ZM13.5162 4.85675C14.2412 4.85675 14.8558 5.4112 14.9159 6.14646L10.9291 6.47191C11.04 7.83024 12.176 8.85675 13.5162 8.85675V4.85675ZM14.9161 6.14912C14.7988 4.68876 13.817 3.44976 12.4256 3.00019L11.1957 6.80643C11.0489 6.75899 10.9413 6.62308 10.9289 6.46925L14.9161 6.14912ZM12.4272 3.00071C13.1605 3.23834 13.5686 4.027 13.3291 4.76808L9.52293 3.53809C9.08158 4.90383 9.83301 6.36484 11.1941 6.80591L12.4272 3.00071ZM13.3267 4.7754C13.0862 5.51016 12.3006 5.90312 11.5786 5.67705L12.7739 1.85982C11.4225 1.43666 9.97092 2.16977 9.52531 3.53077L13.3267 4.7754Z" fill="#323232" mask="url(#path-1-inside-1_0_268)"/>
</svg>
