<svg width="17" height="17" viewBox="0 0 17 17" fill="none" xmlns="http://www.w3.org/2000/svg">
<path fill-rule="evenodd" clip-rule="evenodd" d="M11.7872 0.878357C14.4168 0.878357 16.1841 2.72026 16.1841 5.46097V11.7938C16.1841 14.5345 14.4168 16.3764 11.7872 16.3764H5.06746C2.44172 16.3764 0.678284 14.5345 0.678284 11.7938V5.46097C0.678284 2.72026 2.44172 0.878357 5.06746 0.878357H11.7872ZM11.7872 2.04363H5.06746C3.10904 2.04363 1.84355 3.38524 1.84355 5.46097V11.7938C1.84355 13.8703 3.10904 15.2112 5.06746 15.2112H11.7872C13.7503 15.2112 15.0189 13.8703 15.0189 11.7938V5.46097C15.0189 3.38524 13.7503 2.04363 11.7872 2.04363ZM12.2836 8.72404C12.2885 8.72804 12.2933 8.73202 12.3035 8.74147L12.3185 8.7558C12.3215 8.75874 12.3248 8.76199 12.3285 8.76559L12.3719 8.80864C12.512 8.94892 12.8992 9.3444 14.0532 10.5294C14.2778 10.7594 14.2739 11.1284 14.0431 11.3529C13.8132 11.5789 13.4434 11.572 13.2189 11.342C13.2189 11.342 11.6272 9.7083 11.5137 9.59799C11.3933 9.49933 11.1999 9.44184 11.0096 9.46049C10.8161 9.47991 10.6421 9.57236 10.5186 9.72229C8.71321 11.9122 8.69145 11.9332 8.66193 11.9619C7.9954 12.616 6.91947 12.6052 6.26459 11.9371C6.26459 11.9371 5.54212 11.2037 5.52969 11.189C5.35024 11.0227 5.03018 11.0336 4.8383 11.2364L3.64972 12.4894C3.53475 12.6106 3.38093 12.6712 3.22712 12.6712C3.08262 12.6712 2.93891 12.6184 2.82626 12.5112C2.59243 12.2905 2.58311 11.9208 2.80451 11.6885L3.99153 10.4354C4.62 9.76812 5.6804 9.73549 6.35081 10.3647L7.09503 11.1198C7.30245 11.3296 7.6396 11.3335 7.8478 11.1284C7.92626 11.0359 9.61823 8.98118 9.61823 8.98118C9.93985 8.5912 10.3935 8.35038 10.8977 8.30066C11.4026 8.25638 11.8928 8.4032 12.2836 8.72404ZM5.773 4.4743C6.8466 4.47508 7.719 5.34825 7.719 6.41952C7.719 7.49235 6.84582 8.36552 5.773 8.36552C4.70017 8.36552 3.82777 7.49235 3.82777 6.41952C3.82777 5.3467 4.70017 4.4743 5.773 4.4743ZM5.77222 5.63957C5.34262 5.63957 4.99304 5.98915 4.99304 6.41952C4.99304 6.8499 5.34262 7.20025 5.773 7.20025C6.20337 7.20025 6.55373 6.8499 6.55373 6.41952C6.55373 5.98993 6.20337 5.64035 5.77222 5.63957Z" fill="#323232"/>
</svg>
