<svg width="19" height="19" viewBox="0 0 19 19" fill="none" xmlns="http://www.w3.org/2000/svg">
<g clip-path="url(#clip0_0_593)">
<path d="M10.0277 0.645752C5.09345 0.646492 2.4707 3.76669 2.4707 7.16892C2.4707 8.74641 3.36395 10.7148 4.7942 11.3388C5.2022 11.5202 5.1482 11.2988 5.4992 9.97376C5.52695 9.86346 5.5127 9.76797 5.4227 9.66507C3.3782 7.33104 5.0237 2.53267 9.73595 2.53267C16.5557 2.53267 15.2815 11.8466 10.9225 11.8466C9.79895 11.8466 8.96195 10.9761 9.2267 9.899C9.5477 8.61613 10.1762 7.23702 10.1762 6.31244C10.1762 3.9821 6.6587 4.3278 6.6587 7.41543C6.6587 8.36962 7.0007 9.01365 7.0007 9.01365C7.0007 9.01365 5.86895 13.5263 5.65895 14.3694C5.30345 15.7966 5.70695 18.107 5.7422 18.3061C5.76395 18.4157 5.88845 18.4505 5.9582 18.3602C6.06995 18.2158 7.43795 16.2897 7.8212 14.8972C7.9607 14.3902 8.53295 12.3322 8.53295 12.3322C8.9102 13.0044 9.9977 13.567 11.1565 13.567C14.6035 13.567 17.095 10.5763 17.095 6.86541C17.083 3.30773 13.9982 0.645752 10.0277 0.645752V0.645752Z" fill="#494949"/>
</g>
<defs>
<clipPath id="clip0_0_593">
<rect width="18" height="17.7662" fill="white" transform="translate(0.783203 0.645752)"/>
</clipPath>
</defs>
</svg>
