<svg width="19" height="19" viewBox="0 0 19 19" fill="none" xmlns="http://www.w3.org/2000/svg">
<g clip-path="url(#clip0_0_596)">
<path d="M18.5323 5.3571C18.4378 4.56893 17.695 3.81314 16.9179 3.71189C12.1788 3.12305 7.38668 3.12305 2.64919 3.71189C1.87139 3.81292 1.12861 4.56893 1.03412 5.3571C0.699563 8.24573 0.699563 11.0465 1.03412 13.9345C1.12861 14.7227 1.87139 15.4792 2.64919 15.5797C7.38668 16.1686 12.179 16.1686 16.9179 15.5797C17.695 15.4794 18.4378 14.7227 18.5323 13.9345C18.8669 11.0468 18.8669 8.24573 18.5323 5.3571ZM8.28309 12.6464V6.64617L12.7832 9.64638L8.28309 12.6464Z" fill="#494949"/>
</g>
<defs>
<clipPath id="clip0_0_596">
<rect width="18" height="18" fill="white" transform="translate(0.783203 0.645752)"/>
</clipPath>
</defs>
</svg>
